<svg viewBox="0 0 475 80" fill="none" xmlns="http://www.w3.org/2000/svg">
<g clip-path="url(#clip0_828_24)">
<mask id="mask0_828_24" style="mask-type:luminance" maskUnits="userSpaceOnUse" x="0" y="0" width="475" height="80">
<path d="M475 0H0V80H475V0Z" fill="white"/>
</mask>
<g mask="url(#mask0_828_24)">
<path d="M205.015 24.3203C204.383 24.3189 203.756 24.444 203.171 24.6883C202.585 24.9327 202.054 25.2915 201.605 25.7443C201.157 26.1971 200.802 26.735 200.56 27.3273C200.317 27.9193 200.192 28.5542 200.192 29.1953V56.3988L159.544 25.637C158.561 24.9001 157.396 24.4537 156.178 24.3476C154.961 24.2414 153.737 24.4796 152.645 25.0356C151.553 25.5915 150.635 26.4435 149.992 27.4969C149.349 28.55 149.008 29.7633 149.005 31.0014V66.562C149.005 67.8606 149.515 69.106 150.421 70.0244C151.328 70.9428 152.557 71.4585 153.839 71.4585C155.121 71.4585 156.351 70.9428 157.258 70.0244C158.164 69.106 158.673 67.8606 158.673 66.562V37.7806L203.103 70.6206C203.742 71.0753 204.49 71.3452 205.268 71.4017C206.046 71.458 206.825 71.2985 207.521 70.9407C208.216 70.5828 208.803 70.0398 209.217 69.37C209.631 68.7001 209.857 67.9289 209.871 67.1385V29.1953C209.871 28.5542 209.746 27.9193 209.504 27.3273C209.261 26.735 208.906 26.1971 208.457 25.7443C208.009 25.2915 207.478 24.9327 206.893 24.6883C206.307 24.444 205.681 24.3189 205.048 24.3203" fill="#1F1F1F"/>
<path d="M237.2 53.7017L248.296 36.4329L259.211 53.7017H237.2ZM253.979 27.4342C253.354 26.4802 252.505 25.6977 251.509 25.1565C250.513 24.6153 249.4 24.332 248.27 24.332C247.139 24.332 246.026 24.6153 245.03 25.1565C244.034 25.6977 243.186 26.4802 242.56 27.4342L218.841 63.5169C218.477 64.0769 218.226 64.7043 218.101 65.3628C217.977 66.0214 217.981 66.6985 218.115 67.3553C218.249 68.0121 218.509 68.6358 218.88 69.1908C219.252 69.7457 219.728 70.2211 220.281 70.5897C220.834 70.9585 221.453 71.2132 222.103 71.3393C222.753 71.4657 223.422 71.4609 224.07 71.3254C224.718 71.1902 225.334 70.9268 225.882 70.5502C226.43 70.174 226.899 69.6918 227.263 69.1316L230.894 63.4734H265.366L268.901 69.0771C269.637 70.2315 270.795 71.0422 272.122 71.331C273.448 71.6198 274.836 71.363 275.975 70.6169C277.114 69.871 277.915 68.6969 278.198 67.3531C278.483 66.0094 278.23 64.606 277.493 63.4516L253.979 27.4342Z" fill="#1F1F1F"/>
<path d="M433.878 53.7017L444.976 36.4329L455.901 53.7017H433.878ZM450.668 27.4342C450.044 26.4802 449.195 25.6977 448.2 25.1565C447.202 24.6153 446.089 24.332 444.96 24.332C443.829 24.332 442.716 24.6153 441.721 25.1565C440.725 25.6977 439.877 26.4802 439.25 27.4342L415.553 63.5385C415.169 64.0977 414.902 64.7286 414.763 65.3945C414.624 66.0601 414.619 66.7473 414.744 67.4153C414.872 68.0835 415.131 68.719 415.505 69.2846C415.878 69.8502 416.359 70.3342 416.919 70.7086C417.48 71.083 418.109 71.3401 418.771 71.4646C419.43 71.5892 420.108 71.5788 420.765 71.4337C421.421 71.2889 422.043 71.0123 422.593 70.6209C423.142 70.2291 423.607 69.7302 423.964 69.1534L427.607 63.495H462.066L465.612 69.099C465.975 69.6705 466.447 70.1638 467.002 70.5505C467.555 70.9372 468.177 71.21 468.833 71.3529C469.489 71.4958 470.17 71.5062 470.829 71.3838C471.491 71.2612 472.121 71.0081 472.686 70.6388C473.249 70.2692 473.738 69.791 474.119 69.231C474.501 68.671 474.77 68.0401 474.909 67.3747C475.051 66.7094 475.061 66.0225 474.941 65.3532C474.821 64.6836 474.57 64.0449 474.205 63.4734L450.668 27.4342Z" fill="#1F1F1F"/>
<path d="M337.746 24.6155C336.321 24.6155 334.955 25.1888 333.949 26.2091C332.94 27.2294 332.375 28.6132 332.375 30.0564V59.8494C332.375 60.7308 332.375 62.7876 328.078 62.7876H300.792C296.496 62.7876 296.496 60.7308 296.496 59.8494V30.0345C296.496 28.5916 295.93 27.2076 294.924 26.1873C293.916 25.167 292.549 24.5938 291.124 24.5938C289.702 24.5938 288.336 25.167 287.327 26.1873C286.321 27.2076 285.755 28.5916 285.755 30.0345V59.7406C285.755 65.1814 288.365 71.7102 300.792 71.7102H329.797C341.506 71.7102 343.086 65.6494 343.086 59.7406V30.0345C343.086 28.5916 342.52 27.2076 341.512 26.1873C340.506 25.167 339.139 24.5938 337.714 24.5938" fill="#1F1F1F"/>
<path d="M405.605 63.3412L391.792 46.4097L404.833 32.5687C407.667 29.5545 406.872 25.8004 402.952 24.549C402.09 24.2676 401.167 24.241 400.289 24.4722C399.411 24.7035 398.618 25.1831 397.999 25.8548L382.789 42.4924H364.936V29.9244C364.955 28.5255 364.45 27.1711 363.522 26.1336C362.596 25.0961 361.318 24.4522 359.941 24.3313C359.207 24.2837 358.47 24.3891 357.779 24.6411C357.088 24.8931 356.453 25.2864 355.919 25.7964C355.383 26.3064 354.956 26.9225 354.665 27.6063C354.374 28.2903 354.225 29.0273 354.225 29.7721V65.8764C354.209 67.2748 354.716 68.6276 355.642 69.6646C356.568 70.7017 357.846 71.3462 359.22 71.4694C359.954 71.5172 360.69 71.4118 361.382 71.1598C362.073 70.9078 362.708 70.5145 363.242 70.0046C363.778 69.4945 364.205 68.8785 364.496 68.1945C364.787 67.5108 364.936 66.7737 364.936 66.0289V51.4913H382.93L398.151 69.6959C398.981 70.706 400.177 71.3398 401.468 71.4582C402.763 71.5766 404.049 71.1697 405.047 70.327C406.045 69.4844 406.669 68.2748 406.787 66.9646C406.904 65.6548 406.501 64.3513 405.671 63.3412" fill="#1F1F1F"/>
<path d="M98.0979 79.0985L0 30.6982V8.84822C0.00052234 7.35075 0.376742 5.87798 1.09337 4.56819C1.80999 3.25843 2.84346 2.15465 4.0968 1.3605C5.3501 0.566348 6.78212 0.107862 8.25836 0.0281516C9.73459 -0.0515589 11.2066 0.250141 12.5362 0.904825L110.645 49.2942V71.155C110.642 72.6529 110.264 74.1257 109.546 75.435C108.829 76.7446 107.794 77.8478 106.54 78.6417C105.286 79.4355 103.854 79.894 102.377 79.9739C100.901 80.0537 99.4282 79.7526 98.0979 79.0985Z" fill="#127AC4"/>
<path d="M98.0979 79.0985L0 30.6982V8.84822C0.00052234 7.35075 0.376742 5.87798 1.09337 4.56819C1.80999 3.25843 2.84346 2.15465 4.0968 1.3605C5.3501 0.566348 6.78212 0.107862 8.25836 0.0281516C9.73459 -0.0515589 11.2066 0.250141 12.5362 0.904825L110.645 49.2942V71.155C110.642 72.6529 110.264 74.1257 109.546 75.435C108.829 76.7446 107.794 77.8478 106.54 78.6417C105.286 79.4355 103.854 79.894 102.377 79.9739C100.901 80.0537 99.4282 79.7526 98.0979 79.0985Z" fill="#127AC4"/>
<path d="M0 30.7852V51.895C0.00375813 53.7094 0.508794 55.4862 1.45804 57.0249C2.40729 58.5633 3.76285 59.8017 5.3711 60.6001L42.797 79.0985C44.1227 79.7545 45.5915 80.0574 47.065 79.9793C48.5383 79.9012 49.9679 79.4444 51.2189 78.6518C52.4696 77.8593 53.5007 76.7574 54.2148 75.4497C54.9292 74.142 55.3028 72.6713 55.3009 71.1769V58.1193L0 30.7852Z" fill="#0A4587"/>
<path d="M105.253 19.35L67.9768 0.960372C66.6348 0.297417 65.1484 -0.00865043 63.6572 0.0709465C62.1663 0.150543 60.7199 0.613212 59.454 1.41538C58.1883 2.21755 57.1449 3.33284 56.422 4.65623C55.6994 5.97962 55.321 7.46754 55.3226 8.97996V21.9615L110.645 49.2519V28.0877C110.641 26.2734 110.136 24.4965 109.187 22.958C108.238 21.4195 106.882 20.181 105.274 19.3826" fill="#59BADE"/>
</g>
</g>
<defs>
<clipPath id="clip0_828_24">
<rect width="475" height="80" fill="white"/>
</clipPath>
</defs>
</svg>
